<?xml version="1.0" standalone="no"?><!DOCTYPE svg PUBLIC "-//W3C//DTD SVG 1.1//EN" "http://www.w3.org/Graphics/SVG/1.1/DTD/svg11.dtd"><svg t="1601642792554" class="icon" viewBox="0 0 1024 1024" version="1.1" xmlns="http://www.w3.org/2000/svg" p-id="5332" xmlns:xlink="http://www.w3.org/1999/xlink" width="200" height="200"><defs><style type="text/css"></style></defs><path d="M395.636364 721.454545h302.545454V349.090909h-23.272727v-23.272727h46.545454v418.909091H372.363636v-46.545455h23.272728v23.272727z m116.363636-721.454545l442.181818 256v512L512 1024 69.818182 768V256L512 0z m0 28.276364L93.090909 270.149818v483.700364l418.909091 241.873454 418.909091-241.873454V270.149818L512 28.276364zM302.545455 279.272727h349.090909v395.636364H302.545455V279.272727z m23.272727 23.272728v349.090909h302.545454V302.545455H325.818182z m23.272727 46.545454h256v69.818182H349.090909v-69.818182z m23.272727 23.272727v23.272728h209.454546v-23.272728h-209.454546z m-23.272727 93.090909h116.363636v116.363637h-116.363636v-116.363637z m23.272727 23.272728v69.818182h69.818182v-69.818182h-69.818182z m116.363637-23.272728h116.363636v23.272728h-116.363636v-23.272728z m0 46.545455h116.363636v23.272727h-116.363636v-23.272727z m0 46.545455h69.818182v23.272727h-69.818182v-23.272727z" fill="#ffffff" p-id="5333"></path></svg>