<?xml version="1.0" standalone="no"?><!DOCTYPE svg PUBLIC "-//W3C//DTD SVG 1.1//EN" "http://www.w3.org/Graphics/SVG/1.1/DTD/svg11.dtd"><svg t="1601642643936" class="icon" viewBox="0 0 1024 1024" version="1.1" xmlns="http://www.w3.org/2000/svg" p-id="2171" xmlns:xlink="http://www.w3.org/1999/xlink" width="200" height="200"><defs><style type="text/css"></style></defs><path d="M832 320.379822 640 320.379822C640 249.77092 582.4 192 512 192 441.6 192 384 249.77092 384 320.379822L192 320.379822C160 320.379822 128 346.055786 128 384.569733 128 423.083679 153.6 448.759644 192 448.759644L832 448.759644C864 448.759644 896 423.083679 896 384.569733 896 346.055786 870.4 320.379822 832 320.379822L832 320.379822ZM448 320.379822C448 281.865875 473.6 256.189911 512 256.189911 550.4 256.189911 576 281.865875 576 320.379822L448 320.379822ZM192 953.6C192 992 230.4 1024 268.8 1024L761.6 1024C800 1024 832 992 832 953.6L832 512 192 512 192 953.6ZM640 576 704 576 704 928C704 947.2 691.2 960 672 960 652.8 960 640 947.2 640 928L640 576ZM448 576 512 576 512 928C512 947.2 499.2 960 480 960 460.8 960 448 947.2 448 928L448 576ZM256 576 320 576 320 928C320 947.2 307.2 960 288 960 268.8 960 256 947.2 256 928L256 576Z" p-id="2172" fill="#ffffff"></path></svg>